%TF.GenerationSoftware,KiCad,Pcbnew,9.0.6*%
%TF.CreationDate,2025-12-01T23:19:04-05:00*%
%TF.ProjectId,project,70726f6a-6563-4742-9e6b-696361645f70,rev?*%
%TF.SameCoordinates,Original*%
%TF.FileFunction,Soldermask,Top*%
%TF.FilePolarity,Negative*%
%FSLAX46Y46*%
G04 Gerber Fmt 4.6, Leading zero omitted, Abs format (unit mm)*
G04 Created by KiCad (PCBNEW 9.0.6) date 2025-12-01 23:19:04*
%MOMM*%
%LPD*%
G01*
G04 APERTURE LIST*
G04 Aperture macros list*
%AMRoundRect*
0 Rectangle with rounded corners*
0 $1 Rounding radius*
0 $2 $3 $4 $5 $6 $7 $8 $9 X,Y pos of 4 corners*
0 Add a 4 corners polygon primitive as box body*
4,1,4,$2,$3,$4,$5,$6,$7,$8,$9,$2,$3,0*
0 Add four circle primitives for the rounded corners*
1,1,$1+$1,$2,$3*
1,1,$1+$1,$4,$5*
1,1,$1+$1,$6,$7*
1,1,$1+$1,$8,$9*
0 Add four rect primitives between the rounded corners*
20,1,$1+$1,$2,$3,$4,$5,0*
20,1,$1+$1,$4,$5,$6,$7,0*
20,1,$1+$1,$6,$7,$8,$9,0*
20,1,$1+$1,$8,$9,$2,$3,0*%
G04 Aperture macros list end*
%ADD10C,1.700000*%
%ADD11C,4.000000*%
%ADD12C,2.200000*%
%ADD13R,1.600000X0.850000*%
%ADD14RoundRect,0.152400X1.063600X0.609600X-1.063600X0.609600X-1.063600X-0.609600X1.063600X-0.609600X0*%
%ADD15C,1.524000*%
%ADD16RoundRect,0.152400X-1.063600X-0.609600X1.063600X-0.609600X1.063600X0.609600X-1.063600X0.609600X0*%
G04 APERTURE END LIST*
D10*
%TO.C,SW4*%
X130651250Y-85725000D03*
D11*
X135731250Y-85725000D03*
D10*
X140811250Y-85725000D03*
D12*
X138271250Y-80645000D03*
X131921250Y-83185000D03*
%TD*%
D13*
%TO.C,D1*%
X108100000Y-44020000D03*
X108100000Y-45770000D03*
X111600000Y-45770000D03*
X111600000Y-44020000D03*
%TD*%
%TO.C,D2*%
X140160000Y-43900000D03*
X140160000Y-45650000D03*
X143660000Y-45650000D03*
X143660000Y-43900000D03*
%TD*%
D10*
%TO.C,SW3*%
X111601250Y-85725000D03*
D11*
X116681250Y-85725000D03*
D10*
X121761250Y-85725000D03*
D12*
X119221250Y-80645000D03*
X112871250Y-83185000D03*
%TD*%
D10*
%TO.C,SW1*%
X111601250Y-66675000D03*
D11*
X116681250Y-66675000D03*
D10*
X121761250Y-66675000D03*
D12*
X119221250Y-61595000D03*
X112871250Y-64135000D03*
%TD*%
D10*
%TO.C,SW2*%
X130651250Y-66675000D03*
D11*
X135731250Y-66675000D03*
D10*
X140811250Y-66675000D03*
D12*
X138271250Y-61595000D03*
X131921250Y-64135000D03*
%TD*%
D14*
%TO.C,U1*%
X117855000Y-37140000D03*
D15*
X118690000Y-37140000D03*
D14*
X117855000Y-39680000D03*
D15*
X118690000Y-39680000D03*
D14*
X117855000Y-42220000D03*
D15*
X118690000Y-42220000D03*
D14*
X117855000Y-44760000D03*
D15*
X118690000Y-44760000D03*
D14*
X117855000Y-47300000D03*
D15*
X118690000Y-47300000D03*
D14*
X117855000Y-49840000D03*
D15*
X118690000Y-49840000D03*
D14*
X117855000Y-52380000D03*
D15*
X118690000Y-52380000D03*
X133930000Y-52380000D03*
D16*
X134765000Y-52380000D03*
D15*
X133930000Y-49840000D03*
D16*
X134765000Y-49840000D03*
D15*
X133930000Y-47300000D03*
D16*
X134765000Y-47300000D03*
D15*
X133930000Y-44760000D03*
D16*
X134765000Y-44760000D03*
D15*
X133930000Y-42220000D03*
D16*
X134765000Y-42220000D03*
D15*
X133930000Y-39680000D03*
D16*
X134765000Y-39680000D03*
D15*
X133930000Y-37140000D03*
D16*
X134765000Y-37140000D03*
%TD*%
M02*
