%TF.GenerationSoftware,KiCad,Pcbnew,9.0.6*%
%TF.CreationDate,2025-12-01T23:19:03-05:00*%
%TF.ProjectId,project,70726f6a-6563-4742-9e6b-696361645f70,rev?*%
%TF.SameCoordinates,Original*%
%TF.FileFunction,Legend,Top*%
%TF.FilePolarity,Positive*%
%FSLAX46Y46*%
G04 Gerber Fmt 4.6, Leading zero omitted, Abs format (unit mm)*
G04 Created by KiCad (PCBNEW 9.0.6) date 2025-12-01 23:19:03*
%MOMM*%
%LPD*%
G01*
G04 APERTURE LIST*
%ADD10C,0.150000*%
%ADD11C,0.101600*%
%ADD12C,0.120000*%
%ADD13C,0.127000*%
%ADD14C,0.100000*%
%ADD15C,0.504000*%
G04 APERTURE END LIST*
D10*
X134397917Y-78258200D02*
X134540774Y-78305819D01*
X134540774Y-78305819D02*
X134778869Y-78305819D01*
X134778869Y-78305819D02*
X134874107Y-78258200D01*
X134874107Y-78258200D02*
X134921726Y-78210580D01*
X134921726Y-78210580D02*
X134969345Y-78115342D01*
X134969345Y-78115342D02*
X134969345Y-78020104D01*
X134969345Y-78020104D02*
X134921726Y-77924866D01*
X134921726Y-77924866D02*
X134874107Y-77877247D01*
X134874107Y-77877247D02*
X134778869Y-77829628D01*
X134778869Y-77829628D02*
X134588393Y-77782009D01*
X134588393Y-77782009D02*
X134493155Y-77734390D01*
X134493155Y-77734390D02*
X134445536Y-77686771D01*
X134445536Y-77686771D02*
X134397917Y-77591533D01*
X134397917Y-77591533D02*
X134397917Y-77496295D01*
X134397917Y-77496295D02*
X134445536Y-77401057D01*
X134445536Y-77401057D02*
X134493155Y-77353438D01*
X134493155Y-77353438D02*
X134588393Y-77305819D01*
X134588393Y-77305819D02*
X134826488Y-77305819D01*
X134826488Y-77305819D02*
X134969345Y-77353438D01*
X135302679Y-77305819D02*
X135540774Y-78305819D01*
X135540774Y-78305819D02*
X135731250Y-77591533D01*
X135731250Y-77591533D02*
X135921726Y-78305819D01*
X135921726Y-78305819D02*
X136159822Y-77305819D01*
X136969345Y-77639152D02*
X136969345Y-78305819D01*
X136731250Y-77258200D02*
X136493155Y-77972485D01*
X136493155Y-77972485D02*
X137112202Y-77972485D01*
X109111905Y-42599819D02*
X109111905Y-41599819D01*
X109111905Y-41599819D02*
X109350000Y-41599819D01*
X109350000Y-41599819D02*
X109492857Y-41647438D01*
X109492857Y-41647438D02*
X109588095Y-41742676D01*
X109588095Y-41742676D02*
X109635714Y-41837914D01*
X109635714Y-41837914D02*
X109683333Y-42028390D01*
X109683333Y-42028390D02*
X109683333Y-42171247D01*
X109683333Y-42171247D02*
X109635714Y-42361723D01*
X109635714Y-42361723D02*
X109588095Y-42456961D01*
X109588095Y-42456961D02*
X109492857Y-42552200D01*
X109492857Y-42552200D02*
X109350000Y-42599819D01*
X109350000Y-42599819D02*
X109111905Y-42599819D01*
X110635714Y-42599819D02*
X110064286Y-42599819D01*
X110350000Y-42599819D02*
X110350000Y-41599819D01*
X110350000Y-41599819D02*
X110254762Y-41742676D01*
X110254762Y-41742676D02*
X110159524Y-41837914D01*
X110159524Y-41837914D02*
X110064286Y-41885533D01*
X106878571Y-44382295D02*
X106421428Y-44382295D01*
X106650000Y-44382295D02*
X106650000Y-43582295D01*
X106650000Y-43582295D02*
X106573809Y-43696580D01*
X106573809Y-43696580D02*
X106497619Y-43772771D01*
X106497619Y-43772771D02*
X106421428Y-43810866D01*
X141171905Y-42479819D02*
X141171905Y-41479819D01*
X141171905Y-41479819D02*
X141410000Y-41479819D01*
X141410000Y-41479819D02*
X141552857Y-41527438D01*
X141552857Y-41527438D02*
X141648095Y-41622676D01*
X141648095Y-41622676D02*
X141695714Y-41717914D01*
X141695714Y-41717914D02*
X141743333Y-41908390D01*
X141743333Y-41908390D02*
X141743333Y-42051247D01*
X141743333Y-42051247D02*
X141695714Y-42241723D01*
X141695714Y-42241723D02*
X141648095Y-42336961D01*
X141648095Y-42336961D02*
X141552857Y-42432200D01*
X141552857Y-42432200D02*
X141410000Y-42479819D01*
X141410000Y-42479819D02*
X141171905Y-42479819D01*
X142124286Y-41575057D02*
X142171905Y-41527438D01*
X142171905Y-41527438D02*
X142267143Y-41479819D01*
X142267143Y-41479819D02*
X142505238Y-41479819D01*
X142505238Y-41479819D02*
X142600476Y-41527438D01*
X142600476Y-41527438D02*
X142648095Y-41575057D01*
X142648095Y-41575057D02*
X142695714Y-41670295D01*
X142695714Y-41670295D02*
X142695714Y-41765533D01*
X142695714Y-41765533D02*
X142648095Y-41908390D01*
X142648095Y-41908390D02*
X142076667Y-42479819D01*
X142076667Y-42479819D02*
X142695714Y-42479819D01*
X138938571Y-44262295D02*
X138481428Y-44262295D01*
X138710000Y-44262295D02*
X138710000Y-43462295D01*
X138710000Y-43462295D02*
X138633809Y-43576580D01*
X138633809Y-43576580D02*
X138557619Y-43652771D01*
X138557619Y-43652771D02*
X138481428Y-43690866D01*
X115347917Y-78258200D02*
X115490774Y-78305819D01*
X115490774Y-78305819D02*
X115728869Y-78305819D01*
X115728869Y-78305819D02*
X115824107Y-78258200D01*
X115824107Y-78258200D02*
X115871726Y-78210580D01*
X115871726Y-78210580D02*
X115919345Y-78115342D01*
X115919345Y-78115342D02*
X115919345Y-78020104D01*
X115919345Y-78020104D02*
X115871726Y-77924866D01*
X115871726Y-77924866D02*
X115824107Y-77877247D01*
X115824107Y-77877247D02*
X115728869Y-77829628D01*
X115728869Y-77829628D02*
X115538393Y-77782009D01*
X115538393Y-77782009D02*
X115443155Y-77734390D01*
X115443155Y-77734390D02*
X115395536Y-77686771D01*
X115395536Y-77686771D02*
X115347917Y-77591533D01*
X115347917Y-77591533D02*
X115347917Y-77496295D01*
X115347917Y-77496295D02*
X115395536Y-77401057D01*
X115395536Y-77401057D02*
X115443155Y-77353438D01*
X115443155Y-77353438D02*
X115538393Y-77305819D01*
X115538393Y-77305819D02*
X115776488Y-77305819D01*
X115776488Y-77305819D02*
X115919345Y-77353438D01*
X116252679Y-77305819D02*
X116490774Y-78305819D01*
X116490774Y-78305819D02*
X116681250Y-77591533D01*
X116681250Y-77591533D02*
X116871726Y-78305819D01*
X116871726Y-78305819D02*
X117109822Y-77305819D01*
X117395536Y-77305819D02*
X118014583Y-77305819D01*
X118014583Y-77305819D02*
X117681250Y-77686771D01*
X117681250Y-77686771D02*
X117824107Y-77686771D01*
X117824107Y-77686771D02*
X117919345Y-77734390D01*
X117919345Y-77734390D02*
X117966964Y-77782009D01*
X117966964Y-77782009D02*
X118014583Y-77877247D01*
X118014583Y-77877247D02*
X118014583Y-78115342D01*
X118014583Y-78115342D02*
X117966964Y-78210580D01*
X117966964Y-78210580D02*
X117919345Y-78258200D01*
X117919345Y-78258200D02*
X117824107Y-78305819D01*
X117824107Y-78305819D02*
X117538393Y-78305819D01*
X117538393Y-78305819D02*
X117443155Y-78258200D01*
X117443155Y-78258200D02*
X117395536Y-78210580D01*
X115347917Y-59208200D02*
X115490774Y-59255819D01*
X115490774Y-59255819D02*
X115728869Y-59255819D01*
X115728869Y-59255819D02*
X115824107Y-59208200D01*
X115824107Y-59208200D02*
X115871726Y-59160580D01*
X115871726Y-59160580D02*
X115919345Y-59065342D01*
X115919345Y-59065342D02*
X115919345Y-58970104D01*
X115919345Y-58970104D02*
X115871726Y-58874866D01*
X115871726Y-58874866D02*
X115824107Y-58827247D01*
X115824107Y-58827247D02*
X115728869Y-58779628D01*
X115728869Y-58779628D02*
X115538393Y-58732009D01*
X115538393Y-58732009D02*
X115443155Y-58684390D01*
X115443155Y-58684390D02*
X115395536Y-58636771D01*
X115395536Y-58636771D02*
X115347917Y-58541533D01*
X115347917Y-58541533D02*
X115347917Y-58446295D01*
X115347917Y-58446295D02*
X115395536Y-58351057D01*
X115395536Y-58351057D02*
X115443155Y-58303438D01*
X115443155Y-58303438D02*
X115538393Y-58255819D01*
X115538393Y-58255819D02*
X115776488Y-58255819D01*
X115776488Y-58255819D02*
X115919345Y-58303438D01*
X116252679Y-58255819D02*
X116490774Y-59255819D01*
X116490774Y-59255819D02*
X116681250Y-58541533D01*
X116681250Y-58541533D02*
X116871726Y-59255819D01*
X116871726Y-59255819D02*
X117109822Y-58255819D01*
X118014583Y-59255819D02*
X117443155Y-59255819D01*
X117728869Y-59255819D02*
X117728869Y-58255819D01*
X117728869Y-58255819D02*
X117633631Y-58398676D01*
X117633631Y-58398676D02*
X117538393Y-58493914D01*
X117538393Y-58493914D02*
X117443155Y-58541533D01*
X134397917Y-59208200D02*
X134540774Y-59255819D01*
X134540774Y-59255819D02*
X134778869Y-59255819D01*
X134778869Y-59255819D02*
X134874107Y-59208200D01*
X134874107Y-59208200D02*
X134921726Y-59160580D01*
X134921726Y-59160580D02*
X134969345Y-59065342D01*
X134969345Y-59065342D02*
X134969345Y-58970104D01*
X134969345Y-58970104D02*
X134921726Y-58874866D01*
X134921726Y-58874866D02*
X134874107Y-58827247D01*
X134874107Y-58827247D02*
X134778869Y-58779628D01*
X134778869Y-58779628D02*
X134588393Y-58732009D01*
X134588393Y-58732009D02*
X134493155Y-58684390D01*
X134493155Y-58684390D02*
X134445536Y-58636771D01*
X134445536Y-58636771D02*
X134397917Y-58541533D01*
X134397917Y-58541533D02*
X134397917Y-58446295D01*
X134397917Y-58446295D02*
X134445536Y-58351057D01*
X134445536Y-58351057D02*
X134493155Y-58303438D01*
X134493155Y-58303438D02*
X134588393Y-58255819D01*
X134588393Y-58255819D02*
X134826488Y-58255819D01*
X134826488Y-58255819D02*
X134969345Y-58303438D01*
X135302679Y-58255819D02*
X135540774Y-59255819D01*
X135540774Y-59255819D02*
X135731250Y-58541533D01*
X135731250Y-58541533D02*
X135921726Y-59255819D01*
X135921726Y-59255819D02*
X136159822Y-58255819D01*
X136493155Y-58351057D02*
X136540774Y-58303438D01*
X136540774Y-58303438D02*
X136636012Y-58255819D01*
X136636012Y-58255819D02*
X136874107Y-58255819D01*
X136874107Y-58255819D02*
X136969345Y-58303438D01*
X136969345Y-58303438D02*
X137016964Y-58351057D01*
X137016964Y-58351057D02*
X137064583Y-58446295D01*
X137064583Y-58446295D02*
X137064583Y-58541533D01*
X137064583Y-58541533D02*
X137016964Y-58684390D01*
X137016964Y-58684390D02*
X136445536Y-59255819D01*
X136445536Y-59255819D02*
X137064583Y-59255819D01*
D11*
X117326190Y-32413479D02*
X117326190Y-32927526D01*
X117326190Y-32927526D02*
X117356428Y-32988002D01*
X117356428Y-32988002D02*
X117386666Y-33018241D01*
X117386666Y-33018241D02*
X117447142Y-33048479D01*
X117447142Y-33048479D02*
X117568095Y-33048479D01*
X117568095Y-33048479D02*
X117628571Y-33018241D01*
X117628571Y-33018241D02*
X117658809Y-32988002D01*
X117658809Y-32988002D02*
X117689047Y-32927526D01*
X117689047Y-32927526D02*
X117689047Y-32413479D01*
X118324047Y-33048479D02*
X117961190Y-33048479D01*
X118142618Y-33048479D02*
X118142618Y-32413479D01*
X118142618Y-32413479D02*
X118082142Y-32504193D01*
X118082142Y-32504193D02*
X118021666Y-32564669D01*
X118021666Y-32564669D02*
X117961190Y-32594907D01*
D12*
%TO.C,SW4*%
X128746250Y-78740000D02*
X142716250Y-78740000D01*
X128746250Y-92710000D02*
X128746250Y-78740000D01*
X142716250Y-78740000D02*
X142716250Y-92710000D01*
X142716250Y-92710000D02*
X128746250Y-92710000D01*
%TO.C,D1*%
X107050000Y-42895000D02*
X107050000Y-46895000D01*
X107050000Y-42895000D02*
X112650000Y-42895000D01*
X107050000Y-46895000D02*
X112050000Y-46895000D01*
X112650000Y-46295000D02*
X112050000Y-46895000D01*
X112650000Y-46295000D02*
X112650000Y-42895000D01*
%TO.C,D2*%
X139110000Y-42775000D02*
X139110000Y-46775000D01*
X139110000Y-42775000D02*
X144710000Y-42775000D01*
X139110000Y-46775000D02*
X144110000Y-46775000D01*
X144710000Y-46175000D02*
X144110000Y-46775000D01*
X144710000Y-46175000D02*
X144710000Y-42775000D01*
%TO.C,SW3*%
X109696250Y-78740000D02*
X123666250Y-78740000D01*
X109696250Y-92710000D02*
X109696250Y-78740000D01*
X123666250Y-78740000D02*
X123666250Y-92710000D01*
X123666250Y-92710000D02*
X109696250Y-92710000D01*
%TO.C,SW1*%
X109696250Y-59690000D02*
X123666250Y-59690000D01*
X109696250Y-73660000D02*
X109696250Y-59690000D01*
X123666250Y-59690000D02*
X123666250Y-73660000D01*
X123666250Y-73660000D02*
X109696250Y-73660000D01*
%TO.C,SW2*%
X128746250Y-59690000D02*
X142716250Y-59690000D01*
X128746250Y-73660000D02*
X128746250Y-59690000D01*
X142716250Y-59690000D02*
X142716250Y-73660000D01*
X142716250Y-73660000D02*
X128746250Y-73660000D01*
D13*
%TO.C,U1*%
X117420000Y-53269000D02*
X117420000Y-36124000D01*
X119325000Y-55174000D02*
X133295000Y-55174000D01*
X121815000Y-34219000D02*
X121818728Y-33308728D01*
X122318728Y-32809000D02*
X130314000Y-32809000D01*
X130814000Y-33309000D02*
X130814000Y-34219000D01*
D14*
X133295000Y-34219000D02*
X119325000Y-34219000D01*
D13*
X133295000Y-34219000D02*
X119325000Y-34219000D01*
X135200000Y-53269000D02*
X135200000Y-36124000D01*
X117420000Y-36124000D02*
G75*
G02*
X119325000Y-34219000I1905001J-1D01*
G01*
X119325000Y-55174000D02*
G75*
G02*
X117420000Y-53269000I1J1905001D01*
G01*
X121818728Y-33308728D02*
G75*
G02*
X122318728Y-32809001I500018J-291D01*
G01*
X130314000Y-32809000D02*
G75*
G02*
X130814000Y-33309000I0J-500000D01*
G01*
X133295000Y-34219000D02*
G75*
G02*
X135200000Y-36124000I0J-1905000D01*
G01*
X135200000Y-53269000D02*
G75*
G02*
X133295000Y-55174000I-1905000J0D01*
G01*
D15*
X117612000Y-34460000D02*
G75*
G02*
X117108000Y-34460000I-252000J0D01*
G01*
X117108000Y-34460000D02*
G75*
G02*
X117612000Y-34460000I252000J0D01*
G01*
X118755000Y-35340000D02*
G75*
G02*
X118251000Y-35340000I-252000J0D01*
G01*
X118251000Y-35340000D02*
G75*
G02*
X118755000Y-35340000I252000J0D01*
G01*
%TD*%
M02*
