%TF.GenerationSoftware,KiCad,Pcbnew,9.0.6*%
%TF.CreationDate,2025-12-01T23:19:03-05:00*%
%TF.ProjectId,project,70726f6a-6563-4742-9e6b-696361645f70,rev?*%
%TF.SameCoordinates,Original*%
%TF.FileFunction,Copper,L2,Bot*%
%TF.FilePolarity,Positive*%
%FSLAX46Y46*%
G04 Gerber Fmt 4.6, Leading zero omitted, Abs format (unit mm)*
G04 Created by KiCad (PCBNEW 9.0.6) date 2025-12-01 23:19:03*
%MOMM*%
%LPD*%
G01*
G04 APERTURE LIST*
%TA.AperFunction,ComponentPad*%
%ADD10C,2.200000*%
%TD*%
%TA.AperFunction,ComponentPad*%
%ADD11C,1.524000*%
%TD*%
%TA.AperFunction,ViaPad*%
%ADD12C,0.600000*%
%TD*%
%TA.AperFunction,Conductor*%
%ADD13C,0.200000*%
%TD*%
G04 APERTURE END LIST*
D10*
%TO.P,SW4,1,1*%
%TO.N,GND*%
X138271250Y-80645000D03*
%TO.P,SW4,2,2*%
%TO.N,Net-(U1-GPIO3{slash}MOSI)*%
X131921250Y-83185000D03*
%TD*%
%TO.P,SW3,1,1*%
%TO.N,GND*%
X119221250Y-80645000D03*
%TO.P,SW3,2,2*%
%TO.N,Net-(U1-GPIO4{slash}MISO)*%
X112871250Y-83185000D03*
%TD*%
%TO.P,SW1,1,1*%
%TO.N,GND*%
X119221250Y-61595000D03*
%TO.P,SW1,2,2*%
%TO.N,Net-(U1-GPIO1{slash}RX)*%
X112871250Y-64135000D03*
%TD*%
%TO.P,SW2,1,1*%
%TO.N,GND*%
X138271250Y-61595000D03*
%TO.P,SW2,2,2*%
%TO.N,Net-(U1-GPIO2{slash}SCK)*%
X131921250Y-64135000D03*
%TD*%
D11*
%TO.P,U1,1,GPIO26/ADC0/A0*%
%TO.N,unconnected-(U1-GPIO26{slash}ADC0{slash}A0-Pad1)*%
X118690000Y-37140000D03*
%TO.P,U1,2,GPIO27/ADC1/A1*%
%TO.N,unconnected-(U1-GPIO27{slash}ADC1{slash}A1-Pad2)*%
X118690000Y-39680000D03*
%TO.P,U1,3,GPIO28/ADC2/A2*%
%TO.N,unconnected-(U1-GPIO28{slash}ADC2{slash}A2-Pad3)*%
X118690000Y-42220000D03*
%TO.P,U1,4,GPIO29/ADC3/A3*%
%TO.N,unconnected-(U1-GPIO29{slash}ADC3{slash}A3-Pad4)*%
X118690000Y-44760000D03*
%TO.P,U1,5,GPIO6/SDA*%
%TO.N,Net-(D1-DIN)*%
X118690000Y-47300000D03*
%TO.P,U1,6,GPIO7/SCL*%
%TO.N,unconnected-(U1-GPIO7{slash}SCL-Pad6)*%
X118690000Y-49840000D03*
%TO.P,U1,7,GPIO0/TX*%
%TO.N,unconnected-(U1-GPIO0{slash}TX-Pad7)*%
X118690000Y-52380000D03*
%TO.P,U1,8,GPIO1/RX*%
%TO.N,Net-(U1-GPIO1{slash}RX)*%
X133930000Y-52380000D03*
%TO.P,U1,9,GPIO2/SCK*%
%TO.N,Net-(U1-GPIO2{slash}SCK)*%
X133930000Y-49840000D03*
%TO.P,U1,10,GPIO4/MISO*%
%TO.N,Net-(U1-GPIO4{slash}MISO)*%
X133930000Y-47300000D03*
%TO.P,U1,11,GPIO3/MOSI*%
%TO.N,Net-(U1-GPIO3{slash}MOSI)*%
X133930000Y-44760000D03*
%TO.P,U1,12,3V3*%
%TO.N,unconnected-(U1-3V3-Pad12)*%
X133930000Y-42220000D03*
%TO.P,U1,13,GND*%
%TO.N,GND*%
X133930000Y-39680000D03*
%TO.P,U1,14,VBUS*%
%TO.N,+5V*%
X133930000Y-37140000D03*
%TD*%
D12*
%TO.N,Net-(D1-DOUT)*%
X112150000Y-35310000D03*
%TO.N,GND*%
X108100000Y-45770000D03*
%TO.N,Net-(U1-GPIO1{slash}RX)*%
X130910000Y-52700000D03*
%TO.N,Net-(U1-GPIO4{slash}MISO)*%
X125270000Y-60730000D03*
%TD*%
D13*
%TO.N,Net-(U1-GPIO1{slash}RX)*%
X130910000Y-52700000D02*
X130945000Y-52665000D01*
X127390000Y-56050000D02*
X127540000Y-56200000D01*
X112871250Y-64135000D02*
X112871250Y-61068750D01*
X117890000Y-56050000D02*
X127390000Y-56050000D01*
X127540000Y-56070000D02*
X130910000Y-52700000D01*
X127540000Y-56200000D02*
X127540000Y-56070000D01*
X112871250Y-61068750D02*
X117890000Y-56050000D01*
%TO.N,Net-(U1-GPIO2{slash}SCK)*%
X131921250Y-63618750D02*
X133010000Y-62530000D01*
X133010000Y-62530000D02*
X132637000Y-62157000D01*
X131921250Y-64135000D02*
X131921250Y-63618750D01*
X132637000Y-50691500D02*
X133700000Y-49628500D01*
X132637000Y-62157000D02*
X132637000Y-50691500D01*
%TO.N,Net-(U1-GPIO4{slash}MISO)*%
X125410000Y-60870000D02*
X125270000Y-60730000D01*
X113050000Y-80000000D02*
X125490000Y-67560000D01*
X125490000Y-61260000D02*
X125410000Y-61180000D01*
X112970000Y-80080000D02*
X113050000Y-80000000D01*
X112970000Y-83750000D02*
X112970000Y-80080000D01*
X125410000Y-61180000D02*
X125410000Y-60870000D01*
X112871250Y-83651250D02*
X112970000Y-83750000D01*
X112871250Y-83185000D02*
X112871250Y-83651250D01*
X125490000Y-67560000D02*
X125490000Y-66840000D01*
X125490000Y-66840000D02*
X125490000Y-61260000D01*
%TO.N,Net-(U1-GPIO3{slash}MOSI)*%
X127500000Y-64370000D02*
X127500000Y-69870000D01*
X127500000Y-69870000D02*
X127340000Y-70030000D01*
X131921250Y-74611250D02*
X131921250Y-83185000D01*
X133700000Y-44548500D02*
X132731500Y-44548500D01*
X132731500Y-44548500D02*
X131570000Y-45710000D01*
X127340000Y-70030000D02*
X131921250Y-74611250D01*
X128460000Y-64370000D02*
X127500000Y-64370000D01*
X131570000Y-45710000D02*
X131570000Y-61260000D01*
X131570000Y-61260000D02*
X128460000Y-64370000D01*
%TD*%
M02*
